<?xml version="1.0" standalone="no"?>
<svg xmlns="http://www.w3.org/2000/svg" viewBox="0 0 57 67" width="57" height="67"><g fill="#06a07a" color="#06a07a" transform="translate(6.272 0) scale(0.9166667) "><svg width="48.0" height="44.0" x="0.0" y="0.0" viewBox="0 0 48 44"><path fill="currentColor" fill-rule="evenodd" d="M20.266 38.026c-2.437-1.065-5.302-1.733-8.116-2.388-4.468-1.04-9.088-2.116-9.983-4.553-.56-1.527-.386-3.223.454-4.427.797-1.141 2.148-1.745 3.905-1.745 1.032 0 2.193.204 3.453.61 4.24 1.36 7.292 6.1 9.106 9.838a42.98 42.98 0 0 1 1.18 2.665M6.527 23.066c1.173 0 2.51.215 4.017.698 9.445 3.033 13.383 19.43 13.383 19.43C19.899 36.363 2.888 38.404.434 31.72c-1.374-3.743.476-8.655 6.092-8.655zm34.8 0c5.616 0 7.466 4.912 6.091 8.655-2.453 6.684-19.465 4.644-23.491 11.473 0 0 3.938-16.397 13.383-19.43 1.506-.483 2.843-.697 4.016-.697zm0 1.847c-1.032 0-2.193.205-3.453.61-4.786 1.536-8.263 7.531-10.297 12.507 2.44-1.068 5.308-1.735 8.126-2.392 4.468-1.04 9.087-2.116 9.982-4.553.56-1.526.387-3.222-.453-4.426-.798-1.142-2.149-1.746-3.906-1.746zM11.953 8.493c1 0 2.132.303 3.374 1.025 5.516 3.204 7.5 19.618 7.5 19.618C21.188 23.864 8.384 20.34 7.17 14.633c-.54-2.545 1.343-6.14 4.785-6.14zm23.944-.001c3.442 0 5.325 3.596 4.784 6.14-1.213 5.71-14.017 9.232-15.66 14.504 0 0 1.986-16.414 7.502-19.618 1.242-.722 2.373-1.025 3.374-1.026zm-23.944 1.846c-1.086 0-1.791.589-2.19 1.083-.658.812-.975 1.95-.788 2.828.467 2.204 4.077 4.486 7.262 6.5 1.269.802 2.514 1.59 3.647 2.402a64.171 64.171 0 0 0-.533-2.19c-1.892-7.164-3.914-9.244-4.952-9.847-.885-.514-1.708-.776-2.446-.776zm23.944 0c-.738 0-1.561.262-2.447.776-1.037.603-3.06 2.683-4.951 9.847a63.847 63.847 0 0 0-.534 2.19c1.133-.812 2.379-1.6 3.648-2.402 3.185-2.014 6.795-4.296 7.262-6.5.187-.879-.13-2.016-.788-2.828-.4-.495-1.104-1.082-2.19-1.083zM23.926 0a4.808 4.808 0 0 1 4.808 4.808c0 2.556-4.452 9.636-4.788 10.167l-.02.031s-4.808-7.542-4.808-10.198A4.808 4.808 0 0 1 23.926 0zm0 1.846a2.965 2.965 0 0 0-2.962 2.962c0 .962 1.353 3.808 2.962 6.623 1.608-2.815 2.962-5.66 2.962-6.623a2.965 2.965 0 0 0-2.962-2.962z"></path></svg></g><path fill="#1e4054" fill-rule="nonzero" d="M3.55 17.93Q1.85 17.93 0.92 16.97Q0 16.01 0 14.30L0 14.30L0 0L1.70 0L1.70 14.16Q1.70 15.29 2.23 15.88Q2.76 16.46 3.82 16.46L3.82 16.46Q4.49 16.46 4.97 16.25L4.97 16.25L5.09 17.66Q4.34 17.93 3.55 17.93L3.55 17.93ZM6.48 12.05L6.48 10.56L12.77 10.56L12.77 12.05L6.48 12.05ZM21.82 17.93Q19.94 17.93 18.47 17.11Q16.99 16.30 16.15 14.82Q15.31 13.34 15.31 11.50L15.31 11.50Q15.31 9.65 16.15 8.18Q16.99 6.72 18.47 5.90Q19.94 5.09 21.82 5.09L21.82 5.09Q23.45 5.09 24.73 5.72Q26.02 6.36 26.76 7.58L26.76 7.58L25.49 8.45Q24.86 7.51 23.90 7.04Q22.94 6.58 21.82 6.58L21.82 6.58Q20.45 6.58 19.36 7.19Q18.26 7.80 17.65 8.93Q17.04 10.06 17.04 11.50L17.04 11.50Q17.04 12.96 17.65 14.08Q18.26 15.19 19.36 15.80Q20.45 16.42 21.82 16.42L21.82 16.42Q22.94 16.42 23.90 15.96Q24.86 15.50 25.49 14.57L25.49 14.57L26.76 15.43Q26.02 16.66 24.72 17.29Q23.42 17.93 21.82 17.93L21.82 17.93ZM35.04 17.93Q33.22 17.93 31.75 17.10Q30.29 16.27 29.45 14.81Q28.61 13.34 28.61 11.50L28.61 11.50Q28.61 9.65 29.45 8.18Q30.29 6.72 31.75 5.90Q33.22 5.09 35.04 5.09L35.04 5.09Q36.86 5.09 38.33 5.90Q39.79 6.72 40.62 8.18Q41.45 9.65 41.45 11.50L41.45 11.50Q41.45 13.34 40.62 14.81Q39.79 16.27 38.33 17.10Q36.86 17.93 35.04 17.93L35.04 17.93ZM35.04 16.42Q36.38 16.42 37.45 15.80Q38.52 15.19 39.12 14.06Q39.72 12.94 39.72 11.50L39.72 11.50Q39.72 10.06 39.12 8.93Q38.52 7.80 37.45 7.19Q36.38 6.58 35.04 6.58L35.04 6.58Q33.70 6.58 32.63 7.19Q31.56 7.80 30.95 8.93Q30.34 10.06 30.34 11.50L30.34 11.50Q30.34 12.94 30.95 14.06Q31.56 15.19 32.63 15.80Q33.70 16.42 35.04 16.42L35.04 16.42ZM51.36 5.09Q53.74 5.09 55.14 6.47Q56.54 7.85 56.54 10.49L56.54 10.49L56.54 17.81L54.84 17.81L54.84 10.66Q54.84 8.69 53.86 7.66Q52.87 6.62 51.05 6.62L51.05 6.62Q49.01 6.62 47.82 7.84Q46.63 9.05 46.63 11.18L46.63 11.18L46.63 17.81L44.93 17.81L44.93 5.18L46.56 5.18L46.56 7.51Q47.26 6.36 48.49 5.72Q49.73 5.09 51.36 5.09L51.36 5.09Z" transform="translate(0, 48.334)"></path></svg>